<svg width="35" height="35" viewBox="0 0 35 35" fill="none" xmlns="http://www.w3.org/2000/svg">
<g clip-path="url(#clip0_29_3264)">
<path d="M16.0417 11.9146L9.4646 5.3375C11.7688 3.80625 14.525 2.91666 17.5 2.91666C25.55 2.91666 32.0834 9.45 32.0834 17.5C32.0834 20.475 31.1938 23.2312 29.6625 25.5354L27.5333 23.4062C28.5688 21.6854 29.1667 19.6583 29.1667 17.5C29.1667 12.6146 26.1479 8.42916 21.875 6.69375V7.29166C21.875 8.89583 20.5625 10.2083 18.9583 10.2083H16.0417V11.9146ZM30.9021 30.9021L28.8459 32.9583L25.5354 29.6479C23.2313 31.1937 20.475 32.0833 17.5 32.0833C9.45002 32.0833 2.91668 25.55 2.91668 17.5C2.91668 14.525 3.80627 11.7687 5.33752 9.46458L2.0271 6.15416L4.08335 4.09791L30.9021 30.9021ZM16.0417 26.25C14.4375 26.25 13.125 24.9375 13.125 23.3333V21.875L6.1396 14.8896C5.95002 15.7354 5.83335 16.5958 5.83335 17.5C5.83335 23.45 10.2813 28.35 16.0417 29.0646V26.25Z" fill="#323232"/>
</g>
<defs>
<clipPath id="clip0_29_3264">
<rect width="35" height="35" fill="white"/>
</clipPath>
</defs>
</svg>
